<svg xmlns="http://www.w3.org/2000/svg" xml:space="preserve" id="Capa_1" width="438.529" height="438.529" x="0" y="0" viewBox="0 0 438.529 438.529"><path d="M417.689 75.654c-1.711-1.709-3.901-2.568-6.563-2.568h-88.224L302.917 25.41q-4.283-10.566-15.413-17.989Q276.364 0 264.945 0h-91.363q-11.418 0-22.554 7.421-11.136 7.423-15.419 17.989l-19.985 47.676h-88.22c-2.667 0-4.853.859-6.567 2.568-1.709 1.713-2.568 3.903-2.568 6.567v18.274q0 3.998 2.568 6.564 2.572 2.568 6.567 2.568H54.81v271.8c0 15.803 4.473 29.266 13.418 40.398 8.947 11.139 19.701 16.703 32.264 16.703h237.542q18.847 0 32.265-17.268c8.945-11.52 13.415-25.174 13.415-40.971V109.627h27.411c2.662 0 4.853-.856 6.563-2.568 1.708-1.709 2.57-3.9 2.57-6.564V82.221c.002-2.664-.861-4.854-2.569-6.567M169.301 39.678c1.331-1.712 2.95-2.762 4.853-3.14h90.504c1.903.381 3.525 1.43 4.854 3.14l13.709 33.404h-127.91zm177.872 340.613q.002 6.28-1.999 11.561-2.003 5.278-4.141 7.706c-1.431 1.622-2.423 2.427-2.998 2.427H100.493c-.571 0-1.565-.805-2.996-2.427q-2.144-2.428-4.143-7.706c-1.331-3.519-1.997-7.379-1.997-11.561V109.627h255.815z"/><path d="M137.04 347.172h18.271q4.002 0 6.567-2.567c1.709-1.718 2.568-3.901 2.568-6.57V173.581c0-2.663-.859-4.853-2.568-6.567-1.714-1.709-3.899-2.565-6.567-2.565H137.04q-3.999 0-6.567 2.565-2.567 2.572-2.568 6.567v164.454c0 2.669.854 4.853 2.568 6.57q2.568 2.567 6.567 2.567m73.089 0H228.4q4 0 6.564-2.567c1.718-1.718 2.569-3.901 2.569-6.57V173.581c0-2.663-.852-4.853-2.569-6.567q-2.564-2.564-6.564-2.565h-18.271q-3.997 0-6.567 2.565-2.57 2.572-2.568 6.567v164.454c0 2.669.854 4.853 2.568 6.57q2.57 2.567 6.567 2.567m73.091 0h18.268q4.004 0 6.57-2.567c1.711-1.718 2.562-3.901 2.562-6.57V173.581q.002-3.995-2.562-6.567-2.566-2.564-6.57-2.565H283.22c-2.67 0-4.853.855-6.571 2.565q-2.566 2.572-2.566 6.567v164.454c0 2.669.855 4.853 2.566 6.57 1.718 1.711 3.901 2.567 6.571 2.567"/></svg>
