<svg xmlns="http://www.w3.org/2000/svg" xml:space="preserve" id="Capa_1" width="659.039" height="659.039" x="0" y="0" viewBox="0 0 659.039 659.039"><path id="Shape03" d="M262.662 319.495 31.916 599.02c-12.898 15.641-10.681 38.738 4.968 51.645 15.641 12.881 38.773 10.655 51.68-4.959l229.597-278.141c-23.719-9.595-43.303-26.646-55.499-48.07m352.129-93.441-65.516-54.001 11.829-108.714s4.268-33.726-7.912-43.758c-12.513-10.322-41.472 3.058-41.472 3.058L414.915 68.08l-61.967-45.993S337.413-3.77 317.365.47c-13.599 2.883-19.066 32.438-19.066 32.438l.972 126.028-72.542 46.825s-23.439 21.056-20.679 33.717c3.058 14.063 32.324 19.89 32.324 19.89l111.999 16.149 23.772 102.51s15.851 28.258 31.193 28.529c12.775.245 25.524-27.47 25.524-27.47l48.368-95.508 121.453-1.455s30.791-7.272 34.515-22.09c3.303-13.098-20.407-33.979-20.407-33.979"/></svg>
