<?xml version="1.0" encoding="iso-8859-1"?>
<!-- Generator: Adobe Illustrator 16.0.0, SVG Export Plug-In . SVG Version: 6.00 Build 0)  -->
<!DOCTYPE svg PUBLIC "-//W3C//DTD SVG 1.1//EN" "http://www.w3.org/Graphics/SVG/1.1/DTD/svg11.dtd">
<svg version="1.1" id="Capa_1" xmlns="http://www.w3.org/2000/svg" xmlns:xlink="http://www.w3.org/1999/xlink" x="0px" y="0px"
	 width="659.039px" height="659.039px" viewBox="0 0 659.039 659.039" style="enable-background:new 0 0 659.039 659.039;"
	 xml:space="preserve">
<g>
	<g id="Shape03">
		<g>
			<path d="M262.662,319.495L31.916,599.02c-12.898,15.641-10.681,38.738,4.968,51.645c15.641,12.881,38.773,10.655,51.68-4.959
				l229.597-278.141C294.442,357.97,274.858,340.919,262.662,319.495z M614.791,226.054l-65.516-54.001l11.829-108.714
				c0,0,4.268-33.726-7.912-43.758c-12.513-10.322-41.472,3.058-41.472,3.058L414.915,68.08l-61.967-45.993
				c0,0-15.535-25.857-35.583-21.617c-13.599,2.883-19.066,32.438-19.066,32.438l0.972,126.028l-72.542,46.825
				c0,0-23.439,21.056-20.679,33.717c3.058,14.063,32.324,19.89,32.324,19.89l111.999,16.149l23.772,102.51
				c0,0,15.851,28.258,31.193,28.529c12.775,0.245,25.524-27.47,25.524-27.47l48.368-95.508l121.453-1.455
				c0,0,30.791-7.272,34.515-22.09C638.501,246.935,614.791,226.054,614.791,226.054z"/>
		</g>
	</g>
</g>
<g>
</g>
<g>
</g>
<g>
</g>
<g>
</g>
<g>
</g>
<g>
</g>
<g>
</g>
<g>
</g>
<g>
</g>
<g>
</g>
<g>
</g>
<g>
</g>
<g>
</g>
<g>
</g>
<g>
</g>
</svg>
